<svg width="24" height="27" viewBox="0 0 24 27" fill="none" xmlns="http://www.w3.org/2000/svg">
<g clip-path="url(#clip0_67_201)">
<path d="M0 23.848V17.6587C0.247447 14.3943 2.39922 11.4809 5.45546 10.2515C7.29774 11.3222 9.41151 11.4702 11.3779 10.6209C11.5943 10.5274 11.9744 10.2453 12.1792 10.299C12.384 10.3526 12.7943 10.5765 12.9937 10.683C14.8623 11.6802 16.3819 13.4354 17.0831 15.4183C17.1242 15.5348 17.3484 16.1955 17.2949 16.2568C14.3798 17.0816 12.4096 20.0747 12.8424 23.0578C12.8734 23.2709 12.9813 23.5146 12.9906 23.72C12.9929 23.7645 12.9758 23.848 12.9347 23.848H0Z" fill="#F3CD6E"/>
<path d="M8.3309 0.0219975C12.1605 -0.341314 14.8367 3.86972 12.9742 7.17785C11.1118 10.486 6.40485 10.3932 4.59516 7.17785C2.92664 4.21311 4.91242 0.346218 8.3309 0.0219975Z" fill="#F3CD6E"/>
<path d="M18.6478 17.5365C23.4028 17.1379 25.8641 22.8221 22.32 25.8405C19.0706 28.6075 14.0945 26.0789 14.39 21.8755C14.5436 19.6865 16.4231 17.7235 18.6478 17.5365ZM21.0075 20.1341L18.398 22.6964L17.3563 21.7039L16.254 22.8007L18.3701 24.92L22.1454 21.2248L21.0075 20.1356V20.1341Z" fill="#F3CD6E"/>
</g>
<defs>
<clipPath id="clip0_67_201">
<rect width="24" height="27" fill="white"/>
</clipPath>
</defs>
</svg>
