<svg width="22" height="27" viewBox="0 0 22 27" fill="none" xmlns="http://www.w3.org/2000/svg">
<g clip-path="url(#clip0_67_183)">
<path d="M16.7403 1.88247L17.9774 4.74459C18.441 5.15259 18.9176 5.5506 19.3743 5.96628C19.4901 6.07154 20.2247 6.72464 20.2414 6.7815C20.2643 6.85757 20.246 6.92057 20.2384 6.99357C20.1425 7.91175 19.7367 8.91369 19.6362 9.84724L20.2704 12.8446C20.2666 12.9053 20.214 12.9575 20.1737 12.999C19.5121 13.6783 18.6412 14.2745 17.9698 14.9622L16.7487 17.7636C16.6863 17.8266 16.4861 17.8412 16.3841 17.8566C15.485 17.9895 14.5235 17.9764 13.6245 18.1447L11.0148 19.6622L8.37244 18.1455L5.26721 17.7836L4.02786 14.9622C3.35337 14.2645 2.47182 13.669 1.80647 12.9783C1.76993 12.9399 1.7311 12.9022 1.72729 12.8446L2.36143 9.84724C2.26095 8.91369 1.85519 7.91175 1.75927 6.99357C1.75166 6.92211 1.73186 6.85296 1.75622 6.7815L4.01111 4.7154L5.25807 1.88247L8.37396 1.55054L10.9874 0L13.6549 1.55822L16.7411 1.8817L16.7403 1.88247ZM10.9874 3.23401C6.17617 3.2463 3.13489 8.45805 5.43621 12.7347C7.73906 17.0145 13.827 17.1797 16.3833 13.0513C19.0272 8.78153 15.9524 3.22094 10.9874 3.23401Z" fill="#F3CD6E"/>
<path d="M6.81262 27.0001L4.53033 23.3689L0 23.5041L3.44476 17.4341L4.22506 19.2205L7.81369 19.5939L10.2726 21.0646L6.81262 27.0001Z" fill="#F3CD6E"/>
<path d="M21.9999 23.5041L17.4703 23.3689L15.188 27.0001L11.7273 21.0646L14.1862 19.5939L17.7748 19.2205L18.5551 17.4341L21.9999 23.5041Z" fill="#F3CD6E"/>
<path d="M10.6503 4.80594C14.5975 4.50782 17.1949 8.96736 15.0131 12.3212C13.2028 15.1042 9.18025 15.2325 7.17887 12.5902C4.86232 9.53287 6.87664 5.091 10.651 4.80594H10.6503ZM13.8849 8.74453L13.8575 8.61545L12.8138 7.60199L10.4029 10.0154L10.2948 9.98312L9.1871 8.86978L8.1434 9.88324L8.11143 9.99234L10.4067 12.2452L13.8849 8.74376V8.74453Z" fill="#F3CD6E"/>
</g>
<defs>
<clipPath id="clip0_67_183">
<rect width="22" height="27" fill="white"/>
</clipPath>
</defs>
</svg>
