<?xml version="1.0" encoding="utf-8"?>
<!-- Generator: Adobe Illustrator 24.0.3, SVG Export Plug-In . SVG Version: 6.00 Build 0)  -->
<svg version="1.1" id="Livello_1" xmlns="http://www.w3.org/2000/svg" xmlns:xlink="http://www.w3.org/1999/xlink" x="0px" y="0px"
	 viewBox="0 0 21.8 27" style="enable-background:new 0 0 21.8 27;" xml:space="preserve">
<style type="text/css">
	.st0{clip-path:url(#SVGID_2_);}
	.st1{fill:#F3CD6E;}
</style>
<g>
	<g>
		<defs>
			<rect id="SVGID_1_" x="1.9" y="0" width="18" height="27"/>
		</defs>
		<clipPath id="SVGID_2_">
			<use xlink:href="#SVGID_1_"  style="overflow:visible;"/>
		</clipPath>
		<g class="st0">
			<path class="st1" d="M5.7,3.6v1.7l0.1,0.1h10.5V3.6l0.1-0.1h3.5L20,3.6V27H2V3.6l0.1-0.1L5.7,3.6L5.7,3.6z M8.6,8.3l-2.5,2.5
				L5,9.8l-1.1,1.1L6.1,13l3.6-3.5V9.4L8.6,8.3z M17.3,10.1h-6.1v1.5l0.1,0.1h6V10.1z M9.5,15.4c0.1-0.1,0.3-0.2,0.3-0.3L8.6,14
				l-2.5,2.4l-1.1-1l-1.1,1.1l2.2,2.1c0,0,0.2-0.2,0.3-0.2C7.5,17.4,8.5,16.4,9.5,15.4L9.5,15.4z M17.3,15.7h-6.1v1.5l0.1,0.1h6
				V15.7z M9.6,20.9l0.2-0.3l-1.1-1.1L6.1,22L5,21l-1.1,1.1l2.2,2.1L9.6,20.9L9.6,20.9z M17.3,21.3h-6.1v1.5l0.1,0.1h6V21.3z"/>
			<path class="st1" d="M12,1.8h2.5c0,0,0.1,0.1,0.1,0v2H7.3v-2h0.1h2.5L10,1.7v-1c0-0.1,0.2-0.3,0.2-0.4c0.4-0.5,1.1-0.5,1.5-0.1
				C11.8,0.3,12,0.6,12,0.7V1.8L12,1.8z"/>
		</g>
	</g>
</g>
</svg>
