<svg width="22" height="21" viewBox="0 0 22 21" fill="none" xmlns="http://www.w3.org/2000/svg">
<g clip-path="url(#clip0_74_482)">
<path d="M10.6621 0.0128921L11.2556 0C19.5499 0.228731 24.7986 8.90928 20.4157 15.9288C16.1176 22.8115 5.47275 22.6602 1.40728 15.6469C-2.6582 8.63355 2.51518 0.283211 10.6621 0.0128921ZM10.2412 1.36698C3.31897 1.82444 -0.833516 9.2424 2.68662 15.0888C6.15507 20.8499 14.7663 21.2811 18.7978 15.8569C23.5791 9.42372 18.2981 0.835076 10.2412 1.3674V1.36698Z" fill="#333333"/>
<path d="M10.1947 2.08931C17.1661 1.5861 22.2081 8.5312 18.7676 14.5639C15.6167 20.0892 7.45771 20.4809 3.71444 15.3149C-0.133934 10.0042 3.57057 2.56756 10.1947 2.08931ZM6.09006 9.74888H7.02523V10.5731L6.32137 10.5815L6.04354 11.5546H7.16566C7.47106 13.1682 8.54752 14.7697 10.2512 15.233C11.4668 15.5636 12.719 15.3553 13.8936 14.9806L13.6636 13.3603C13.3604 13.4972 13.0717 13.661 12.753 13.7671C10.672 14.4595 9.38448 13.5101 8.80167 11.5999H12.7056L12.9628 10.5619H8.66167L8.61472 9.9302H12.9391L13.3367 8.80194H8.84862C9.44952 7.07439 10.9094 6.37323 12.7181 6.98415C12.8478 7.02782 13.5309 7.34471 13.5701 7.31227L13.9918 5.75607C11.4689 4.75381 8.93606 5.20795 7.62527 7.64289C7.52318 7.83253 7.14369 8.75744 7.14369 8.75744L6.33602 8.76492L6.09049 9.7493L6.09006 9.74888Z" fill="#333333"/>
</g>
<defs>
<clipPath id="clip0_74_482">
<rect width="22" height="21" fill="white"/>
</clipPath>
</defs>
</svg>
