<svg width="22" height="20" viewBox="0 0 22 20" fill="none" xmlns="http://www.w3.org/2000/svg">
<g clip-path="url(#clip0_74_505)">
<path d="M0 5.06445L2.34712 2.23373L5.67501 3.64883L4.79958 6.72692L0 5.06445Z" fill="#333333"/>
<path d="M6.83129 3.86108H15.2743L16.0796 6.93917H6.02539L6.83129 3.86108Z" fill="#333333"/>
<path d="M15.6245 2.65825H6.58633L3.81836 1.52618L6.44622 0.499969H15.6245L18.2166 1.57938L15.6245 2.65825Z" fill="#333333"/>
<path d="M16.4299 3.64883L17.2711 6.72692L22.0001 5.02881L19.7583 2.23373L16.4299 3.64883Z" fill="#333333"/>
<path d="M21.2641 6.7269L13.5222 16.9172L17.3932 8.03612L21.2641 6.7269Z" fill="#333333"/>
<path d="M16.0796 8.07178H6.02539L11.0178 19.5L16.0796 8.07178Z" fill="#333333"/>
<path d="M4.76427 8.07178L8.75795 16.9172L0.665771 6.51465L4.76427 8.07178Z" fill="#333333"/>
</g>
<defs>
<clipPath id="clip0_74_505">
<rect width="22" height="19" fill="white" transform="translate(0 0.499969)"/>
</clipPath>
</defs>
</svg>
