<svg width="27" height="26" viewBox="0 0 27 26" fill="none" xmlns="http://www.w3.org/2000/svg">
<g clip-path="url(#clip0_67_190)">
<path d="M25.9077 19.7856C25.4 20.287 24.8723 20.7736 24.3616 21.2712C24.1297 21.4975 23.9271 21.6013 23.9618 21.9469C24.0789 23.0985 24.4132 24.4005 24.6019 25.5645C24.612 25.628 24.6636 25.9822 24.6505 26L20.8181 24.0006C19.7666 24.5074 18.7559 25.0987 17.7191 25.6327C17.6158 25.6861 17.0366 25.9977 16.9865 25.9605L17.7198 21.6873L14.7125 18.775L14.6763 18.6379L18.8969 18.021L20.8196 14.1431L22.7647 18.0373C23.9949 18.2426 25.239 18.3728 26.4708 18.5712C26.5509 18.5844 27.0023 18.6518 27.0015 18.6952C26.6425 19.0633 26.2751 19.4237 25.9092 19.7848L25.9077 19.7856Z" fill="#F3CD6E"/>
<path d="M12.2875 18.6379L12.2505 18.775L9.24317 21.6873L9.938 25.9612L6.11178 23.9936L2.31175 26L3.00043 21.9074L2.99658 21.6873L0.0200285 18.7541L0 18.6564L4.19906 18.0373L6.16262 14.1431L8.06765 18.0202L12.2875 18.6379Z" fill="#F3CD6E"/>
<path d="M13.5192 0L15.4073 3.85544L19.5101 4.45526L19.6433 4.51493L16.6082 7.54504L17.2938 11.8182L13.4684 9.8118L9.66835 11.8182L10.3547 7.54504L7.31885 4.51493L7.45288 4.45526L11.5557 3.85544L13.4337 0.0495976L13.5192 0Z" fill="#F3CD6E"/>
</g>
<defs>
<clipPath id="clip0_67_190">
<rect width="27" height="26" fill="white"/>
</clipPath>
</defs>
</svg>
