<?xml version="1.0" encoding="utf-8"?>
<!-- Generator: Adobe Illustrator 24.0.3, SVG Export Plug-In . SVG Version: 6.00 Build 0)  -->
<svg version="1.1" id="Livello_1" xmlns="http://www.w3.org/2000/svg" xmlns:xlink="http://www.w3.org/1999/xlink" x="0px" y="0px"
	 viewBox="0 0 27 29.2" style="enable-background:new 0 0 27 29.2;" xml:space="preserve">
<style type="text/css">
	.st0{fill-rule:evenodd;clip-rule:evenodd;fill:#F3CD6E;}
</style>
<path class="st0" d="M16.5,19.4c2.9,0.3,5.3,1,6.7,2c0.7,0.5,1.2,1,1.2,1.5c0,0.3-0.1,0.6-0.4,0.8c-0.3,0.4-0.8,0.7-1.4,1.1
	c-2.1,1.1-5.5,1.8-9.4,1.8c-3.9,0-7.3-0.7-9.4-1.8c-0.6-0.3-1.1-0.7-1.4-1.1C2.2,23.5,2,23.3,2,23c0-0.6,0.5-1.1,1.2-1.5
	c1.5-1,3.9-1.7,6.7-2c0.6-0.1,1-0.6,0.9-1.1c-0.1-0.6-0.6-1-1.1-0.9c-3.3,0.4-6,1.2-7.6,2.4C0.7,20.7,0,21.8,0,23
	c0,1.1,0.6,2.1,1.8,3c2.2,1.6,6.5,2.8,11.5,2.8c5,0,9.3-1.2,11.5-2.8c1.2-0.9,1.8-1.9,1.8-3c0-1.2-0.7-2.3-2.1-3.2
	c-1.7-1.1-4.4-2-7.6-2.4c-0.6-0.1-1.1,0.3-1.1,0.9C15.6,18.8,16,19.4,16.5,19.4z"/>
<path class="st0" d="M12.2,15.1c-3.1-0.5-5.4-3.2-5.4-6.4c0-3.6,2.9-6.5,6.5-6.5c3.6,0,6.5,2.9,6.5,6.5c0,3.2-2.4,5.9-5.4,6.4V23
	c0,0.6-0.5,1-1,1c-0.6,0-1-0.5-1-1V15.1z M13.3,13.1c2.4,0,4.4-2,4.4-4.4s-2-4.4-4.4-4.4s-4.4,2-4.4,4.4S10.8,13.1,13.3,13.1z"/>
</svg>
